<svg width="26" height="26" viewBox="0 0 26 26" fill="none" xmlns="http://www.w3.org/2000/svg">
<path d="M5.83125 2.75875L7.265 4.8075C5.52273 6.02721 4.2147 7.77063 3.53093 9.7845C2.84715 11.7984 2.82325 13.9778 3.46269 16.0062C4.10213 18.0346 5.37161 19.8062 7.08672 21.0639C8.80182 22.3215 10.8732 22.9996 13 22.9996C15.1268 22.9996 17.1982 22.3215 18.9133 21.0639C20.6284 19.8062 21.8979 18.0346 22.5373 16.0062C23.1768 13.9778 23.1529 11.7984 22.4691 9.7845C21.7853 7.77063 20.4773 6.02721 18.735 4.8075L20.1688 2.75875C21.8162 3.91053 23.1612 5.44307 24.0893 7.22609C25.0175 9.0091 25.5014 10.9899 25.5 13C25.5 19.9038 19.9038 25.5 13 25.5C6.09625 25.5 0.500003 19.9038 0.500003 13C0.498556 10.9899 0.98249 9.0091 1.91067 7.22609C2.83884 5.44307 4.18382 3.91053 5.83125 2.75875ZM11.75 13V0.5H14.25V13H11.75Z" fill="#ECEDEE"/>
</svg>
